# xmcd
#
# Track frame offsets: 
#        150
#        19755
#        36074
#        54164
#        76359
#        103849
#        117725
#        141964
#        167398
#        190257
#        211973
#        232741
#
# Disc length: 3434 seconds
#
# Revision: 1
# Processed by: cddbd v1.5.2PL0 Copyright (c) Steve Scherf et al.
# Submitted via: ExactAudioCopy v0.99pb5
#
DISCID=980d680c
DTITLE=Electronic - Electronic (2013 Reissue, Special Edition), Disc T
DTITLE=wo
DYEAR=2013
DGENRE=Synthpop
TTITLE0=Disappointed (Stephen Hague 7'' Version)
TTITLE1=Second To None (2013 Edit)
TTITLE2=Lean To The Inside (2013 Edit)
TTITLE3=Twisted Tenderness (Guitar - Vocal Mix)
TTITLE4=Idiot Country Two (12'' Version - Edit)
TTITLE5=Free Will (Edit)
TTITLE6=Until The End Of Time (Edit)
TTITLE7=Feel Every Beat (2013 Edit)
TTITLE8=Getting Away With It (Instrumental)
TTITLE9=Turning Point (Edit)
TTITLE10=Visit Me (Edit)
TTITLE11=Twisted Tenderness (Instrumental)
EXTD=
EXTT0=
EXTT1=
EXTT2=
EXTT3=
EXTT4=
EXTT5=
EXTT6=
EXTT7=
EXTT8=
EXTT9=
EXTT10=
EXTT11=
PLAYORDER=
